<svg version="1" fill="#ffffff" xmlns="http://www.w3.org/2000/svg" width="1365.333" height="1365.333" viewBox="0 0 1024.000000 1024.000000"><path d="M346 105.9c-33.9 1.2-81.6 6.1-114 11.7-8 1.3-15.6 2.4-17 2.4-1.4 0-6.1.9-10.5 1.9-4.4 1-9.8 2.1-12.1 2.4-5.3.8-22.1 4.4-30.9 6.7-3.8 1-9.5 2.3-12.5 2.9-3 .5-8.2 1.9-11.5 3l-6 2 5-.3c2.8-.1 11.8-1.2 20-2.4 8.3-1.2 20.2-2.6 26.5-3.2 6.3-.6 18.3-1.8 26.5-2.6 21-2 104-2.9 138-1.5 14.9.6 33.3 1.8 41 2.6 7.7.9 19 2 25 2.5 6.1.5 17.1 1.8 24.5 2.9 7.4 1.2 19.8 3 27.5 4.2 42.9 6.5 101.4 20.4 136 32.5 2.2.8 6.7 2.1 10 2.9 3.2.9 6.4 2 6.9 2.4.6.5 3.6 1.6 6.7 2.5 3.1.9 6.9 2.3 8.5 3.1 1.6.8 3.4 1.5 3.9 1.5.9 0 13.5 4.9 18 7 1.1.5 8.1 3.4 15.5 6.5 11 4.6 49.6 23.3 57.5 27.9 1.1.6 5.1 2.9 9 5.1 13.7 7.8 34.3 20.7 37.5 23.5 1.3 1.1 4 3 6 4.2 3.4 2.1 5.3 3.5 23.5 17.8 19.2 15.1 48.9 45.3 62 63 6.1 8.4 17.1 24.8 19.6 29.4 3.4 6.4 12.8 25.3 14.4 29.1 2.3 5.4 7.8 22.3 10.4 31.7 3.3 12.1 6.1 34.6 6.1 50 0 12.4-3.1 35.3-6 44.8-1.1 3.6-2 7.1-2 7.8 0 1.2-2.7 8.6-6.9 18.7-.9 2.2-3.6 7.8-6 12.5s-5 9.7-5.8 11.2c-.8 1.5-1.9 3-2.4 3.3-.5.4-1.8 2.3-2.8 4.4-1.6 3-13.2 19.3-15.1 21.1-.3.3-3.6 4.1-7.2 8.6-10.4 12.5-35.7 34.7-54.2 47.5-21.9 15.1-35.2 23-58.6 34.7-25.2 12.6-42.4 19.6-74 30.4-21.8 7.4-25.9 8.6-49.5 14.7-30.7 7.9-82.5 18-93 18.2-2.2 0-4.9.4-6 .9-1.5.7-.9.9 2.5.9 12.4.1 73.1-3 84-4.4 6.9-.8 15.2-1.8 18.5-2 14.8-1.3 50.3-7.1 71.5-11.6 5.2-1.2 11.5-2.5 14-3 5-.9 16.8-4 27.5-7 3.9-1.1 7.8-2.2 8.7-2.4 3.4-.7 31.4-9.7 37.8-12.1 3.6-1.4 9-3.4 12-4.6 22.3-8.3 54.5-23.7 72.4-34.4 4.9-3 9.1-5.4 9.4-5.4.2 0 3.3-2 6.8-4.5 3.4-2.5 6.5-4.5 6.8-4.5 1 0 24.1-17.4 30.5-23 19.5-16.9 41.3-40.1 51.5-55 33.5-48.3 46.7-96.9 41.2-151-1.8-17.2-5.5-31.7-14.1-56-2.2-6.1-12.9-27.7-16.7-33.7-15.2-23.8-29.1-41.7-45.1-58.1-16.2-16.6-45.8-41.3-63.7-53.2-3.7-2.5-10.1-6.7-14.1-9.4-19.8-13.2-43.2-25.9-75.9-41.3-4.1-2-9.1-4.4-11-5.3-1.9-1-4.6-2.1-6-2.5-1.4-.4-4.7-1.8-7.5-3-11.1-5.1-42.8-16.7-62.5-22.9-4.1-1.3-11.1-3.5-15.5-4.9-4.4-1.3-11.4-3.4-15.5-4.5-4.1-1.2-10.2-2.8-13.5-3.7-3.3-1-8-2.1-10.5-2.7-2.5-.5-8.8-2-14-3.3-11.2-2.7-27.2-6.2-31.5-6.9-1.6-.2-7.7-1.3-13.5-2.4-31.1-6-69.2-11-107.5-14.2-27.2-2.3-100.7-3.4-138.5-2.1z"/><path d="M293 374c-49.8 2.7-99.7 11.9-139.5 25.7-20.5 7.1-54.8 22.6-62.1 28-1.7 1.3-3.4 2.3-3.8 2.3-.4 0-5.7 3.4-11.9 7.5-22.3 14.8-36.6 28.1-52.1 48.3C9.4 504.2.1 530.8 0 553.5c-.2 42.4 19.3 79.3 56.5 107.4 8.2 6.1 21.2 14.8 29 19.4 8.9 5.1 37.8 18.8 50 23.7 4.4 1.7 9.6 3.8 11.5 4.7 7.7 3.4 40.6 14.6 54.5 18.6 50.3 14.5 84.2 20.7 139 25.7 20.3 1.8 23.3 1 8.5-2.5-30.1-6.9-65-16.1-85.5-22.5-29-8.9-62.1-20.8-78-28-17-7.6-37.3-17.9-49.4-25.1-9-5.3-25.9-17.3-32.6-23.3-23.3-20.6-35.6-39.3-42.1-64.1-2.6-9.8-2.6-33.7-.1-45 5.8-25.2 17.6-45.4 39.7-67.6 12.4-12.5 17.5-16.6 37-29.8 9.4-6.3 39.4-22 48.9-25.6 2-.7 6.8-2.5 10.6-4 50.3-19.2 110.4-29.5 172-29.5 23.6 0 52.4 1.7 70.4 4.1 7.9 1.1 14.5 1.8 14.7 1.6.5-.5-8.3-2.7-23.6-6.1-26.8-5.9-56.7-9.7-90.5-11.6-18.7-1.1-27.3-1.1-47.5 0zM545.5 427.7c-24 5.2-40.7 14.2-57.1 30.7-14.5 14.7-22 27.2-26.9 45-10 36.3 11.7 65.5 48.8 65.6 21.1 0 43.2-8.8 62.2-24.8 15.2-12.9 25.7-27.4 32.2-44.4 3.5-9.1 3.6-9.6 3.6-23.8 0-11.7-.3-15.1-1.6-17.5-.9-1.7-1.7-3.5-1.7-4 0-1.8-8.4-12.8-12.4-16.2-8.5-7.6-20.5-11.4-35.1-11.2-5.5.1-10.9.3-12 .6z"/><path d="M425.5 462.8c-6.4 3.2-32.6 21.3-45 31.2-24.5 19.6-53.7 50.3-72 76-2.1 3-4.9 6.8-6.1 8.5l-2.3 3 10.2.1c12.3 0 23.5 2.7 34 8.1 10.7 5.5 24.4 19.6 32.3 33.3 13.3 22.7 22 51.4 27.6 90.5 2.1 14.8 2.3 19.2 2.2 60-.1 35.4-.4 46.4-1.8 56.5-.9 6.9-2.1 16.1-2.6 20.5-1.6 14.5-7.8 47.2-11.9 62.7-1.8 6.9-1.3 8.4.9 2.6.7-1.8 2.3-5.7 3.6-8.6 1.3-2.9 2.4-5.5 2.4-5.7 0-.6 13.6-29.2 15.2-32 .6-1.1 3.6-6.7 6.6-12.5 6.4-12.5 14.6-27.1 17.9-32.1 1.2-1.9 2.3-3.8 2.3-4.2 0-.4 2.3-4.3 5-8.7 2.8-4.4 5-8.4 5-9 0-.5.4-1 .9-1 .4 0 2.3-2.6 4-5.8 1.8-3.1 5.5-9.1 8.2-13.2 2.7-4.1 6.2-9.5 7.7-11.8 1.5-2.4 5-7.5 7.7-11.3 4.7-6.5 10.9-15 19.3-26.6 35.1-48.8 82.3-97 120.7-123.4 27.4-18.8 51.9-28.1 74.6-28.3l10.6-.1-.4-12c-.8-24.8-6.7-47.7-18.4-70.5-6-11.8-16.4-26.2-24.8-34.4l-4.1-4-1.6 4c-4.2 10.3-18.2 34-23.9 40.4-1.2 1.4-4.1 5.2-6.4 8.5-7.2 10.3-30.5 35.1-47.1 50.1-12.6 11.3-36.5 26.8-50 32.2-14.9 6-30.8 7.6-42.8 4.4-26.7-7.3-45.5-33.9-54.9-77.9-2.4-11.1-2.7-15.1-2.8-30.3 0-13.7.4-18.9 1.8-23.9.9-3.5 1.6-6.5 1.5-6.6-.2-.1-1.6.5-3.3 1.3z"/></svg>